<svg width="28" height="28" viewBox="0 0 28 28" fill="none" xmlns="http://www.w3.org/2000/svg">
<path opacity="0.4" d="M15.5226 6.86281V7.07636C14.9502 7.06512 14.3777 7.06512 13.8053 7.06512V6.87405C13.8053 6.09853 13.1527 5.46912 12.3741 5.46912H11.2407C9.94691 5.46912 8.89359 4.43509 8.89359 3.17627C8.89359 2.71545 9.28286 2.33331 9.75227 2.33331C10.2331 2.33331 10.611 2.71545 10.611 3.17627C10.611 3.51346 10.8972 3.7832 11.2407 3.7832H12.3741C14.1029 3.79444 15.5112 5.1769 15.5226 6.86281Z" fill="#200E32"/>
<path fill-rule="evenodd" clip-rule="evenodd" d="M17.6913 7.09645C18.059 7.10149 18.4274 7.10655 18.7972 7.11033C22.77 7.11033 25.6667 9.94267 25.6667 13.854V18.878C25.6667 22.7894 22.77 25.6217 18.7972 25.6217C17.2058 25.6554 15.6143 25.6667 14.0115 25.6667C12.4086 25.6667 10.7943 25.6554 9.20282 25.6217C5.22997 25.6217 2.33334 22.7894 2.33334 18.878V13.854C2.33334 9.94267 5.22997 7.11033 9.21427 7.11033C10.7141 7.08785 12.2483 7.06537 13.8054 7.06537C14.3778 7.06537 14.9503 7.06537 15.5227 7.07661C16.2445 7.07661 16.9662 7.08651 17.6913 7.09645ZM12.6605 17.2034H11.4583V18.3947C11.4583 18.8556 11.069 19.2377 10.5996 19.2377C10.1188 19.2377 9.74093 18.8556 9.74093 18.3947V17.2034H8.52733C8.05791 17.2034 7.66864 16.8325 7.66864 16.3604C7.66864 15.8996 8.05791 15.5174 8.52733 15.5174H9.74093V14.3373C9.74093 13.8765 10.1188 13.4943 10.5996 13.4943C11.069 13.4943 11.4583 13.8765 11.4583 14.3373V15.5174H12.6605C13.1299 15.5174 13.5191 15.8996 13.5191 16.3604C13.5191 16.8325 13.1299 17.2034 12.6605 17.2034ZM17.5263 15.3039H17.6408C18.1102 15.3039 18.4995 14.933 18.4995 14.4609C18.4995 14.0001 18.1102 13.618 17.6408 13.618H17.5263C17.0455 13.618 16.6677 14.0001 16.6677 14.4609C16.6677 14.933 17.0455 15.3039 17.5263 15.3039ZM19.4841 19.1703H19.5986C20.0681 19.1703 20.4573 18.7994 20.4573 18.3273C20.4573 17.8665 20.0681 17.4843 19.5986 17.4843H19.4841C19.0033 17.4843 18.6255 17.8665 18.6255 18.3273C18.6255 18.7994 19.0033 19.1703 19.4841 19.1703Z" fill="#200E32"/>
</svg>
