<svg width="28" height="28" viewBox="0 0 28 28" fill="none" xmlns="http://www.w3.org/2000/svg">
<path d="M11.8449 6.48144C11.9043 6.60238 11.9436 6.7319 11.9611 6.86505L12.286 11.695L12.4472 14.1226C12.4489 14.3722 12.488 14.6203 12.5635 14.8587C12.7582 15.3213 13.2267 15.6153 13.7364 15.5948L21.5032 15.0868C21.8396 15.0812 22.1643 15.207 22.4061 15.4365C22.6076 15.6277 22.7377 15.8778 22.7787 16.1468L22.7924 16.3102C22.471 20.7607 19.2024 24.4728 14.7611 25.431C10.3198 26.3892 5.76552 24.365 3.57084 20.4574C2.93813 19.3221 2.54294 18.0743 2.40846 16.7871C2.35228 16.4061 2.32754 16.0212 2.33449 15.6363C2.32755 10.8648 5.72539 6.73977 10.4817 5.74532C11.0542 5.65618 11.6154 5.95923 11.8449 6.48144Z" fill="#200E32"/>
<path opacity="0.4" d="M15.015 2.33427C20.3349 2.46961 24.8061 6.29507 25.6667 11.4477L25.6585 11.4857L25.635 11.541L25.6383 11.6927C25.6261 11.8938 25.5484 12.0873 25.4146 12.2435C25.2753 12.4063 25.0849 12.5172 24.8752 12.5602L24.7473 12.5778L15.7864 13.1584C15.4884 13.1878 15.1916 13.0916 14.9699 12.8939C14.7852 12.7292 14.6671 12.5068 14.6338 12.2671L14.0323 3.31922C14.0218 3.28896 14.0218 3.25616 14.0323 3.22591C14.0405 2.97926 14.1491 2.74613 14.3337 2.57858C14.5184 2.41104 14.7638 2.32305 15.015 2.33427Z" fill="#200E32"/>
</svg>
