<svg width="24" height="24" viewBox="0 0 24 24" fill="none" xmlns="http://www.w3.org/2000/svg">
<path opacity="0.4" d="M23.6667 12.0056C23.6667 18.4327 18.4302 23.6666 12 23.6666C5.56983 23.6666 0.333344 18.4327 0.333344 12.0056C0.333344 5.56727 5.56983 0.333313 12 0.333313C18.4302 0.333313 23.6667 5.56727 23.6667 12.0056Z" fill="#200E32"/>
<path d="M16.6667 12.0057C16.6667 12.3005 16.5739 12.5965 16.3883 12.8335C16.3535 12.88 16.1911 13.0717 16.0634 13.1964L15.9938 13.2645C15.0194 14.2976 12.5949 15.8513 11.3653 16.3491C11.3653 16.3604 10.6345 16.6564 10.2865 16.6666H10.2401C9.70644 16.6666 9.20762 16.3729 8.95241 15.8966C8.81321 15.6347 8.68561 14.8748 8.67401 14.8646C8.5696 14.1831 8.5 13.1397 8.5 11.9943C8.5 10.7933 8.5696 9.7035 8.69721 9.03441C8.69721 9.02307 8.82481 8.41067 8.90601 8.20654C9.03362 7.91282 9.26563 7.66219 9.55563 7.50342C9.78764 7.39115 10.0313 7.33331 10.2865 7.33331C10.5533 7.34579 11.0521 7.51476 11.2493 7.59415C12.5485 8.09313 15.031 9.72618 15.9822 10.7242C16.1447 10.8829 16.3187 11.0769 16.3651 11.1211C16.5623 11.3706 16.6667 11.6768 16.6667 12.0057Z" fill="#200E32"/>
</svg>
